<svg width="159" height="57" viewBox="0 0 159 57" fill="none" xmlns="http://www.w3.org/2000/svg">
<path d="M152.028 51.7569C148.818 54.7869 147.418 51.7969 143.008 51.7969C138.598 51.7969 138.598 51.6469 134.188 51.6469C129.778 51.6469 129.778 51.0869 125.368 51.0869C120.958 51.0869 120.958 51.7269 116.548 51.7269C112.138 51.7269 112.138 51.3569 107.728 51.3569C103.318 51.3569 103.318 51.7069 98.9078 51.7069C94.4978 51.7069 94.4978 51.9669 90.0878 51.9669C85.6778 51.9669 85.6778 51.5969 81.2678 51.5969C76.8578 51.5969 76.8578 51.8269 72.4478 51.8269C68.0378 51.8269 68.0378 51.9869 63.6278 51.9869C59.2178 51.9869 59.2178 51.1269 54.8078 51.1269C50.3978 51.1269 50.3978 51.5369 45.9878 51.5369C41.5778 51.5369 41.5778 51.8969 37.1678 51.8969C32.7578 51.8969 32.7578 51.6469 28.3378 51.6469C23.9278 51.6469 23.9278 51.7569 19.5178 51.7569C15.0978 51.7569 15.0978 51.1569 10.6878 51.1569C6.26776 51.1569 4.77776 54.8569 1.56776 51.8269C-1.46224 48.9669 1.84776 47.3569 1.84776 43.1869C1.84776 39.0169 1.66776 39.0169 1.66776 34.8569C1.66776 30.6869 2.11776 30.6869 2.11776 26.5269C2.11776 22.3569 1.40776 22.3569 1.40776 18.1969C1.40776 14.0269 1.98776 14.0269 1.98776 9.85695C1.98776 5.68695 -1.09224 4.47695 1.93776 1.60695C5.14776 -1.42305 6.26776 1.36695 10.6778 1.36695C15.0878 1.36695 15.0878 1.57695 19.4978 1.57695C23.9078 1.57695 23.9078 1.91695 28.3178 1.91695C32.7278 1.91695 32.7278 1.05695 37.1378 1.05695C41.5478 1.05695 41.5478 1.46695 45.9578 1.46695C50.3678 1.46695 50.3678 1.88695 54.7778 1.88695C59.1878 1.88695 59.1878 1.69695 63.5978 1.69695C68.0078 1.69695 68.0078 1.79695 72.4178 1.79695C76.8278 1.79695 76.8278 1.31695 81.2378 1.31695C85.6478 1.31695 85.6478 1.76695 90.0578 1.76695C94.4678 1.76695 94.4678 1.72695 98.8778 1.72695C103.288 1.72695 103.288 1.19695 107.698 1.19695C112.108 1.19695 112.108 1.99695 116.518 1.99695C120.928 1.99695 120.928 1.68695 125.348 1.68695C129.758 1.68695 129.758 1.46695 134.168 1.46695C138.588 1.46695 138.588 1.69695 142.998 1.69695C147.408 1.69695 148.888 -1.79305 152.108 1.23695C155.138 4.09695 152.248 5.69695 152.248 9.85695C152.248 14.0269 151.488 14.0269 151.488 18.1869C151.488 22.3569 151.958 22.3569 151.958 26.5169C151.958 30.6869 151.858 30.6869 151.858 34.8469C151.858 39.0169 150.838 39.1369 151.768 43.1969C152.788 47.6869 155.058 48.8969 152.028 51.7569Z" fill="#FFFEFD"/>
<path d="M156.06 53.7401C152.85 56.7701 151.45 53.7801 147.04 53.7801C142.63 53.7801 142.63 53.6301 138.22 53.6301C133.81 53.6301 133.81 53.0701 129.4 53.0701C124.99 53.0701 124.99 53.7101 120.58 53.7101C116.17 53.7101 116.17 53.3401 111.76 53.3401C107.35 53.3401 107.35 53.6901 102.94 53.6901C98.53 53.6901 98.53 53.9501 94.12 53.9501C89.71 53.9501 89.71 53.5801 85.3 53.5801C80.89 53.5801 80.89 53.8101 76.48 53.8101C72.07 53.8101 72.07 53.9701 67.66 53.9701C63.25 53.9701 63.25 53.1101 58.84 53.1101C54.43 53.1101 54.43 53.5201 50.02 53.5201C45.61 53.5201 45.61 53.8801 41.2 53.8801C36.79 53.8801 36.79 53.6301 32.37 53.6301C27.96 53.6301 27.96 53.7401 23.55 53.7401C19.13 53.7401 19.13 53.1401 14.72 53.1401C10.3 53.1401 8.80999 56.8401 5.59999 53.8101C2.56999 50.9501 5.87999 49.3401 5.87999 45.1701C5.87999 41.0001 5.69999 41.0001 5.69999 36.8401C5.69999 32.6701 6.14999 32.6701 6.14999 28.5101C6.14999 24.3401 5.43999 24.3401 5.43999 20.1801C5.43999 16.0101 6.01999 16.0101 6.01999 11.8401C6.01999 7.6701 2.93999 6.4601 5.96999 3.5901C9.17999 0.560101 10.3 3.3501 14.71 3.3501C19.12 3.3501 19.12 3.5601 23.53 3.5601C27.94 3.5601 27.94 3.9001 32.35 3.9001C36.76 3.9001 36.76 3.0401 41.17 3.0401C45.58 3.0401 45.58 3.4501 49.99 3.4501C54.4 3.4501 54.4 3.8701 58.81 3.8701C63.22 3.8701 63.22 3.6801 67.63 3.6801C72.04 3.6801 72.04 3.7801 76.45 3.7801C80.86 3.7801 80.86 3.3001 85.27 3.3001C89.68 3.3001 89.68 3.7501 94.09 3.7501C98.5 3.7501 98.5 3.7101 102.91 3.7101C107.32 3.7101 107.32 3.1801 111.73 3.1801C116.14 3.1801 116.14 3.9801 120.55 3.9801C124.96 3.9801 124.96 3.6701 129.38 3.6701C133.79 3.6701 133.79 3.4501 138.2 3.4501C142.62 3.4501 142.62 3.6801 147.03 3.6801C151.44 3.6801 152.92 0.190101 156.14 3.2201C159.17 6.0801 156.28 7.6801 156.28 11.8401C156.28 16.0101 155.52 16.0101 155.52 20.1701C155.52 24.3401 155.99 24.3401 155.99 28.5001C155.99 32.6701 155.89 32.6701 155.89 36.8301C155.89 41.0001 154.87 41.1201 155.8 45.1801C156.82 49.6701 159.09 50.8801 156.06 53.7401Z" stroke="#242423" stroke-width="2" stroke-miterlimit="10" stroke-linecap="round"/>
</svg>
