<svg width="26" height="25" viewBox="0 0 26 25" fill="none" xmlns="http://www.w3.org/2000/svg">
<path fill-rule="evenodd" clip-rule="evenodd" d="M25.4094 7.35009C25.3509 6.02174 25.136 5.10851 24.8283 4.31719C24.5109 3.47721 24.0225 2.72519 23.3827 2.10003C22.7575 1.46513 22.0005 0.971796 21.1703 0.659311C20.3744 0.351594 19.4659 0.136784 18.1376 0.0782168C16.7993 0.0146895 16.3744 0 12.9802 0C9.58597 0 9.16112 0.0146895 7.82781 0.0732567C6.49946 0.131824 5.58623 0.346825 4.7951 0.654351C3.95494 0.971796 3.20291 1.46017 2.57775 2.10003C1.94286 2.72519 1.44971 3.48217 1.13703 4.31242C0.829316 5.10851 0.614506 6.01678 0.555939 7.34513C0.492412 8.6834 0.477722 9.10825 0.477722 12.5025C0.477722 15.8967 0.492412 16.3216 0.550979 17.6549C0.609546 18.9832 0.824547 19.8965 1.13226 20.6878C1.44971 21.5277 1.94286 22.2798 2.57775 22.9049C3.20291 23.5398 3.9599 24.0332 4.79014 24.3457C5.58623 24.6534 6.4945 24.8682 7.82304 24.9267C9.15616 24.9855 9.58121 25 12.9754 25C16.3697 25 16.7945 24.9855 18.1278 24.9267C19.4562 24.8682 20.3694 24.6534 21.1605 24.3457C22.8407 23.6961 24.169 22.3677 24.8186 20.6878C25.1261 19.8917 25.3411 18.9832 25.3997 17.6549C25.4583 16.3216 25.473 15.8967 25.473 12.5025C25.473 9.10825 25.468 8.6834 25.4094 7.35009ZM23.1581 17.5572C23.1043 18.7781 22.8992 19.4375 22.7283 19.877C22.3082 20.9661 21.4438 21.8305 20.3547 22.2506C19.9152 22.4215 19.2511 22.6266 18.0349 22.6802C16.7163 22.739 16.3208 22.7535 12.9852 22.7535C9.6495 22.7535 9.24907 22.739 7.93522 22.6802C6.71427 22.6266 6.05496 22.4215 5.61542 22.2506C5.07344 22.0503 4.5801 21.7328 4.17967 21.3177C3.76455 20.9123 3.4471 20.4239 3.24679 19.882C3.07586 19.4424 2.87078 18.7781 2.81717 17.5622C2.75841 16.2435 2.74391 15.8479 2.74391 12.5122C2.74391 9.17655 2.75841 8.77612 2.81717 7.46246C2.87078 6.24151 3.07586 5.5822 3.24679 5.14266C3.4471 4.60048 3.76455 4.10734 4.18463 3.70671C4.58983 3.29159 5.07821 2.97415 5.62038 2.77403C6.05992 2.60309 6.72419 2.39801 7.94018 2.34422C9.2588 2.28565 9.65446 2.27096 12.9899 2.27096C16.3306 2.27096 16.726 2.28565 18.0399 2.34422C19.2608 2.39801 19.9201 2.60309 20.3597 2.77403C20.9017 2.97415 21.395 3.29159 21.7954 3.70671C22.2106 4.11211 22.528 4.60048 22.7283 5.14266C22.8992 5.5822 23.1043 6.24628 23.1581 7.46246C23.2167 8.78108 23.2314 9.17655 23.2314 12.5122C23.2314 15.8479 23.2167 16.2386 23.1581 17.5572ZM12.9802 6.08031C9.43471 6.08031 6.55804 8.95678 6.55804 12.5025C6.55804 16.0482 9.43471 18.9247 12.9802 18.9247C16.5259 18.9247 19.4024 16.0482 19.4024 12.5025C19.4024 8.95678 16.5259 6.08031 12.9802 6.08031ZM12.9802 16.6684C10.6801 16.6684 8.81431 14.8028 8.81431 12.5025C8.81431 10.2021 10.6801 8.33658 12.9802 8.33658C15.2806 8.33658 17.1461 10.2021 17.1461 12.5025C17.1461 14.8028 15.2806 16.6684 12.9802 16.6684ZM19.6563 7.32568C20.4844 7.32568 21.1558 6.65435 21.1558 5.8264C21.1558 4.99825 20.4844 4.32711 19.6563 4.32711C18.8283 4.32711 18.157 4.99825 18.157 5.8264C18.157 6.65435 18.8283 7.32568 19.6563 7.32568Z" fill="#F35A69"/>
</svg>
