<svg width="481" height="251" viewBox="0 0 481 251" fill="none" xmlns="http://www.w3.org/2000/svg">
<path d="M320.113 66.0144V114.88C320.113 116.355 319.007 117.461 317.532 117.461H301.489C300.014 117.461 298.908 116.355 298.908 114.88V112.851C293.929 116.908 287.475 119.305 280.283 119.305C264.61 119.305 252.255 108.057 252.255 93.3051C252.255 78.369 264.61 67.1208 280.283 67.1208C286.922 67.1208 292.822 69.1491 297.617 72.6527V66.0144C297.617 59.7449 293.56 55.6882 287.475 55.6882C282.865 55.6882 279.546 57.7165 278.071 61.2201C277.702 62.3264 276.595 63.064 275.305 63.064H258.525C256.496 63.064 255.021 61.2201 255.574 59.1917C259.262 46.0995 271.064 37.064 287.659 37.064C306.468 37.2484 320.113 49.0499 320.113 66.0144ZM297.617 93.4896C297.617 88.5108 292.638 84.4541 286.369 84.4541C280.283 84.4541 275.305 88.5108 275.305 93.4896C275.305 98.4683 280.283 102.341 286.369 102.341C292.822 102.341 297.617 98.2839 297.617 93.4896ZM423.744 93.6739H438.496C440.156 93.6739 441.815 94.7803 442.368 96.4399C443.475 99.3903 446.61 101.603 450.113 101.603C454.354 101.603 457.858 99.0215 457.858 95.5179C457.858 90.5392 451.773 88.3264 445.319 86.8513C433.517 84.0853 420.61 78.1846 420.61 61.9576C420.61 45.9151 434.255 37.2484 449.744 37.2484C464.68 37.2484 476.297 45.7307 478.695 57.1633C479.248 59.5605 477.404 61.9576 475.007 61.9576H459.702C458.227 61.9576 456.936 61.2201 456.383 59.7449C455.461 57.1633 452.879 55.135 449.56 55.135C445.872 55.135 442.922 57.5321 442.922 60.4825C442.922 64.908 448.269 67.3052 456.014 69.1491C467.815 72.0995 480.354 77.6314 480.354 93.4896C480.354 109.901 466.709 119.305 450.113 119.305C434.439 119.305 422.454 110.27 420.056 98.2839C419.503 96.0711 421.347 93.6739 423.744 93.6739ZM249.305 98.0995V114.511C249.305 116.17 248.014 117.461 246.354 117.461H195.092C193.432 117.461 192.142 116.17 192.142 114.511V14.5676C192.142 12.908 193.432 11.6173 195.092 11.6173H212.978C214.638 11.6173 215.929 12.908 215.929 14.5676V95.1491H246.354C248.014 95.1491 249.305 96.4399 249.305 98.0995ZM416 78.369C416 101.787 399.957 119.305 378.198 119.305C368.61 119.305 360.312 115.248 354.595 108.795V113.589C354.595 115.802 352.751 117.461 350.723 117.461H336.156C333.943 117.461 332.283 115.617 332.283 113.589V10.8797C332.283 8.6669 334.127 7.00732 336.156 7.00732H350.723C352.936 7.00732 354.595 8.8513 354.595 10.8797V47.9435C360.496 41.3052 368.61 37.4328 378.198 37.4328C399.957 37.2484 416 54.9506 416 78.369ZM392.95 78.369C392.95 67.3052 384.837 59.0073 373.773 59.0073C362.709 59.0073 354.595 67.3052 354.595 78.369C354.595 89.4328 362.709 97.7307 373.773 97.7307C384.837 97.7307 392.95 89.4328 392.95 78.369Z" fill="#F35A69"/>
<path d="M192.142 169.83L201.73 143.092H206.34L215.929 169.83H211.688L209.291 162.823H198.78L196.383 169.83H192.142ZM208 159.319L204.127 147.887H203.943L200.071 159.319H208ZM229.39 149.731H233.262V153.05H233.631C234.369 151.759 235.659 149.546 239.347 149.546C244.142 149.546 247.83 153.419 247.83 159.872C247.83 166.326 244.326 170.199 239.347 170.199C235.659 170.199 234.184 167.986 233.447 166.695H233.262V177.39H229.39V149.731V149.731ZM238.425 166.88C241.929 166.88 243.773 163.745 243.773 159.688C243.773 155.631 241.929 152.681 238.425 152.681C234.922 152.681 233.262 155.447 233.262 159.688C233.262 163.929 235.106 166.88 238.425 166.88ZM255.943 169.83H252.071V143.092H255.943V169.83ZM260.369 164.114C260.369 159.504 264.241 158.582 268.113 158.029C271.801 157.66 273.276 157.66 273.276 156.185C273.276 153.972 271.986 152.497 269.404 152.497C266.822 152.497 265.347 153.787 264.794 155.263L261.106 154.341C262.397 150.653 265.716 149.177 269.404 149.177C272.539 149.177 277.149 150.284 277.149 156.185V169.461H273.276V166.695H273.092C272.354 168.17 270.51 169.83 267.191 169.83C263.319 170.199 260.369 167.986 260.369 164.114ZM273.092 162.638V160.057C272.539 160.61 269.588 160.979 268.298 161.163C266.085 161.532 264.241 162.27 264.241 164.298C264.241 166.142 265.9 167.248 268.113 167.248C271.248 167.064 273.092 164.851 273.092 162.638ZM281.39 159.872C281.39 153.787 285.078 149.546 290.794 149.546C295.404 149.546 298.723 152.312 299.092 156.369H295.22C294.851 154.525 293.191 152.865 290.794 152.865C287.475 152.865 285.262 155.631 285.262 159.872C285.262 164.298 287.475 167.064 290.794 167.064C293.007 167.064 294.666 165.773 295.22 163.56H299.092C298.723 167.433 295.588 170.383 290.794 170.383C284.893 170.199 281.39 165.958 281.39 159.872ZM302.411 159.872C302.411 153.787 306.099 149.362 311.631 149.362C316.241 149.362 320.482 152.128 320.482 159.504V160.979H306.283C306.468 164.851 308.681 167.064 312 167.064C314.212 167.064 315.872 166.142 316.61 164.114L320.298 164.851C319.376 168.17 316.241 170.199 312 170.199C305.915 170.199 302.411 166.142 302.411 159.872ZM316.61 158.029C316.61 154.894 314.581 152.681 311.631 152.681C308.496 152.681 306.468 155.078 306.283 158.029H316.61ZM344.269 152.865H340.028V169.83H336.156V152.865H333.021V149.731H336.156V147.333C336.156 143.646 338.922 141.617 342.056 141.617C343.716 141.617 344.822 141.986 345.376 142.17L344.454 145.305C344.085 145.121 343.532 144.936 342.61 144.936C340.766 144.936 340.028 145.858 340.028 147.702V149.546H344.269V152.865ZM346.482 159.872C346.482 153.603 350.17 149.546 355.886 149.546C361.603 149.546 365.29 153.603 365.29 159.872C365.29 166.142 361.603 170.199 355.886 170.199C350.17 170.199 346.482 166.142 346.482 159.872ZM361.418 159.872C361.418 156 359.759 152.681 356.071 152.681C352.383 152.681 350.723 156 350.723 159.872C350.723 163.745 352.383 166.88 356.071 166.88C359.574 166.88 361.418 163.745 361.418 159.872ZM369.716 149.731H373.588V152.865H373.773C374.51 150.653 376.539 149.362 378.936 149.362C379.489 149.362 380.227 149.362 380.595 149.362V153.05C380.227 153.05 379.305 152.865 378.567 152.865C375.801 152.865 373.773 154.709 373.773 157.475V169.83H369.9V149.731H369.716ZM192.879 196.752C192.879 190.667 196.567 186.241 202.099 186.241C206.709 186.241 210.95 189.007 210.95 196.383V197.858H196.752C196.936 201.731 199.149 203.943 202.468 203.943C204.681 203.943 206.34 203.021 207.078 200.993L210.766 201.731C209.844 205.05 206.709 207.078 202.468 207.078C196.567 207.078 192.879 203.021 192.879 196.752ZM207.262 194.908C207.262 191.773 205.234 189.56 202.283 189.56C199.149 189.56 197.12 191.958 196.936 194.908H207.262ZM222.567 194.355L226.993 186.61H231.234L224.964 196.568L231.234 206.525H226.993L222.383 198.965L217.957 206.525H213.716L219.986 196.568L213.9 186.61H218.142L222.567 194.355ZM235.291 186.61H239.163V189.929H239.532C240.269 188.638 241.56 186.426 245.248 186.426C250.042 186.426 253.73 190.298 253.73 196.752C253.73 203.206 250.227 207.078 245.248 207.078C241.56 207.078 240.085 204.865 239.347 203.575H239.163V214.27H235.291V186.61ZM244.326 203.759C247.83 203.759 249.673 200.624 249.673 196.568C249.673 192.511 247.83 189.56 244.326 189.56C240.822 189.56 239.163 192.326 239.163 196.568C239.163 200.809 241.007 203.759 244.326 203.759ZM257.234 196.752C257.234 190.667 260.922 186.241 266.454 186.241C271.064 186.241 275.305 189.007 275.305 196.383V197.858H261.106C261.291 201.731 263.503 203.943 266.822 203.943C269.035 203.943 270.695 203.021 271.432 200.993L275.12 201.731C274.198 205.05 271.064 207.078 266.822 207.078C260.737 207.078 257.234 203.021 257.234 196.752ZM271.432 194.908C271.432 191.773 269.404 189.56 266.454 189.56C263.319 189.56 261.291 191.958 261.106 194.908H271.432ZM279.73 186.61H283.603V189.745H283.787C284.525 187.532 286.553 186.241 288.95 186.241C289.503 186.241 290.241 186.241 290.61 186.241V189.929C290.241 189.929 289.319 189.745 288.581 189.745C285.815 189.745 283.787 191.589 283.787 194.355V206.709H279.915V186.61H279.73ZM293.376 181.078C293.376 179.787 294.482 178.681 295.773 178.681C297.064 178.681 298.17 179.787 298.17 181.078C298.17 182.369 297.064 183.475 295.773 183.475C294.482 183.475 293.376 182.369 293.376 181.078ZM293.929 186.61H297.801V206.709H293.929V186.61ZM303.149 186.61H306.837V189.929H307.021C307.943 187.716 309.787 186.426 312.553 186.426C315.319 186.426 317.163 187.716 317.9 189.929H318.085C319.007 187.716 321.22 186.426 324.17 186.426C327.858 186.426 330.439 188.638 330.439 193.248V206.709H326.383V193.617C326.383 190.851 324.723 189.745 322.695 189.745C320.113 189.745 318.638 191.589 318.638 193.986V206.709H314.766V193.433C314.766 191.22 313.29 189.745 311.078 189.745C308.865 189.745 307.021 191.589 307.021 194.355V206.709H303.149V186.61V186.61ZM334.681 196.752C334.681 190.667 338.368 186.241 343.9 186.241C348.51 186.241 352.751 189.007 352.751 196.383V197.858H338.553C338.737 201.731 340.95 203.943 344.269 203.943C346.482 203.943 348.142 203.021 348.879 200.993L352.567 201.731C351.645 205.05 348.51 207.078 344.269 207.078C338.368 207.078 334.681 203.021 334.681 196.752ZM349.064 194.908C349.064 191.773 347.035 189.56 344.085 189.56C340.95 189.56 338.922 191.958 338.737 194.908H349.064ZM361.234 206.709H357.361V186.61H361.049V189.929H361.234C362.156 187.716 364.184 186.426 367.134 186.426C371.191 186.426 373.957 189.007 373.957 193.986V206.709H370.085V194.355C370.085 191.404 368.425 189.745 365.844 189.745C363.078 189.745 361.234 191.589 361.234 194.724V206.709V206.709ZM388.709 189.745H384.652V200.809C384.652 203.021 385.759 203.575 387.049 203.575C387.602 203.575 388.156 203.39 388.34 203.39L389.078 206.709C388.709 206.894 387.787 207.078 386.496 207.078C383.361 207.078 380.595 205.419 380.595 201.731V189.929H377.645V186.794H380.595V182H384.468V186.794H388.524V189.745H388.709ZM392.028 200.993C392.028 196.383 395.9 195.461 399.773 194.908C403.461 194.539 404.936 194.539 404.936 193.064C404.936 190.851 403.645 189.376 401.063 189.376C398.482 189.376 397.007 190.667 396.454 192.142L392.766 191.22C394.056 187.532 397.376 186.057 401.063 186.057C404.198 186.057 408.808 187.163 408.808 193.064V206.341H404.936V203.575H404.751C404.014 205.05 402.17 206.709 398.851 206.709C395.163 207.078 392.028 204.865 392.028 200.993ZM404.936 199.518V196.936C404.383 197.489 401.432 197.858 400.141 198.043C397.929 198.411 396.085 199.149 396.085 201.177C396.085 203.021 397.744 204.128 399.957 204.128C403.092 203.943 404.936 201.731 404.936 199.518ZM423.376 189.745H419.319V200.809C419.319 203.021 420.425 203.575 421.716 203.575C422.269 203.575 422.822 203.39 423.007 203.39L423.744 206.709C423.376 206.894 422.454 207.078 421.163 207.078C418.028 207.078 415.262 205.419 415.262 201.731V189.929H412.312V186.794H415.262V182H419.134V186.794H423.191V189.745H423.376ZM427.248 181.078C427.248 179.787 428.354 178.681 429.645 178.681C430.936 178.681 432.042 179.787 432.042 181.078C432.042 182.369 430.936 183.475 429.645 183.475C428.354 183.475 427.248 182.369 427.248 181.078ZM427.801 186.61H431.673V206.709H427.801V186.61ZM436.099 196.752C436.099 190.482 439.787 186.426 445.503 186.426C451.219 186.426 454.907 190.482 454.907 196.752C454.907 203.021 451.219 207.078 445.503 207.078C439.787 207.078 436.099 203.021 436.099 196.752ZM450.851 196.752C450.851 192.88 449.191 189.56 445.503 189.56C441.815 189.56 440.156 192.88 440.156 196.752C440.156 200.624 441.815 203.759 445.503 203.759C449.007 203.759 450.851 200.624 450.851 196.752ZM463.021 206.709H459.149V186.61H462.836V189.929H463.021C463.943 187.716 465.971 186.426 468.922 186.426C472.978 186.426 475.744 189.007 475.744 193.986V206.709H472.056V194.355C472.056 191.404 470.397 189.745 467.815 189.745C465.049 189.745 463.205 191.589 463.205 194.724V206.709H463.021ZM192.879 237.872C192.879 233.263 196.752 232.341 200.624 231.787C204.312 231.419 205.787 231.419 205.787 229.943C205.787 227.731 204.496 226.255 201.915 226.255C199.333 226.255 197.858 227.546 197.305 229.021L193.617 228.099C194.908 224.411 198.227 222.936 201.915 222.936C205.049 222.936 209.659 224.043 209.659 229.943V243.22H205.787V240.454H205.603C204.865 241.929 203.021 243.589 199.702 243.589C195.83 243.958 192.879 241.745 192.879 237.872ZM205.603 236.397V233.816C205.049 234.369 202.099 234.738 200.808 234.922C198.596 235.291 196.752 236.028 196.752 238.057C196.752 239.901 198.411 241.007 200.624 241.007C203.759 240.823 205.603 238.61 205.603 236.397ZM224.227 226.624H220.17V237.688C220.17 239.901 221.276 240.454 222.567 240.454C223.12 240.454 223.674 240.27 223.858 240.27L224.595 243.589C224.227 243.773 223.305 243.958 222.014 243.958C218.879 243.958 216.113 242.298 216.113 238.61V226.809H213.163V223.674H216.113V218.88H219.986V223.674H224.042V226.624H224.227ZM247.645 219.802C244.326 219.802 242.298 221.461 242.298 223.858C242.298 226.44 245.064 227.362 247.092 227.915L249.673 228.653C252.993 229.575 257.418 231.419 257.418 236.213C257.418 240.823 253.73 244.142 247.461 244.142C241.376 244.142 237.688 241.192 237.503 236.213H241.56C241.744 239.163 244.326 240.454 247.461 240.454C250.964 240.454 253.361 238.794 253.361 236.028C253.361 233.631 251.149 232.709 248.198 231.972L245.064 231.05C240.822 229.943 238.056 227.731 238.056 224.043C238.056 219.433 242.113 216.298 247.645 216.298C253.177 216.298 256.865 219.433 257.049 223.674H253.177C252.808 221.277 250.78 219.802 247.645 219.802ZM261.106 237.872C261.106 233.263 264.978 232.341 268.851 231.787C272.539 231.419 274.014 231.419 274.014 229.943C274.014 227.731 272.723 226.255 270.142 226.255C267.56 226.255 266.085 227.546 265.532 229.021L261.844 228.099C263.134 224.411 266.454 222.936 270.142 222.936C273.276 222.936 277.886 224.043 277.886 229.943V243.22H274.014V240.454H273.83C273.092 241.929 271.248 243.589 267.929 243.589C264.056 243.958 261.106 241.745 261.106 237.872ZM273.83 236.397V233.816C273.276 234.369 270.326 234.738 269.035 234.922C266.822 235.291 264.978 236.028 264.978 238.057C264.978 239.901 266.638 241.007 268.851 241.007C271.986 240.823 273.83 238.61 273.83 236.397ZM292.085 243.589H287.844L280.468 223.489H284.709L289.872 238.979H290.056L295.22 223.489H299.461L292.085 243.589ZM301.489 237.872C301.489 233.263 305.361 232.341 309.234 231.787C312.922 231.419 314.397 231.419 314.397 229.943C314.397 227.731 313.106 226.255 310.525 226.255C307.943 226.255 306.468 227.546 305.915 229.021L302.227 228.099C303.517 224.411 306.837 222.936 310.525 222.936C313.659 222.936 318.269 224.043 318.269 229.943V243.22H314.397V240.454H314.212C313.475 241.929 311.631 243.589 308.312 243.589C304.624 243.958 301.489 241.745 301.489 237.872ZM314.397 236.397V233.816C313.844 234.369 310.893 234.738 309.603 234.922C307.39 235.291 305.546 236.028 305.546 238.057C305.546 239.901 307.205 241.007 309.418 241.007C312.553 240.823 314.397 238.61 314.397 236.397ZM335.049 229.021C334.681 227.731 333.39 226.255 330.993 226.255C328.78 226.255 327.12 227.362 327.12 228.837C327.12 230.128 328.042 230.865 330.255 231.419L333.39 232.156C337.078 233.078 338.922 234.738 338.922 237.688C338.922 241.376 335.603 243.958 330.624 243.958C326.198 243.958 323.064 241.929 322.51 238.426L326.383 237.872C326.936 239.901 328.411 240.823 330.624 240.823C333.205 240.823 334.865 239.532 334.865 238.057C334.865 236.766 333.943 236.028 332.099 235.475L328.78 234.738C325.092 233.816 323.248 231.972 323.248 229.206C323.248 225.702 326.383 223.305 330.993 223.305C335.418 223.305 337.815 225.333 338.553 228.468L335.049 229.021ZM353.305 216.851H357.361V240.085H369.532V243.589H353.305V216.851V216.851ZM372.851 237.872C372.851 233.263 376.723 232.341 380.595 231.787C384.283 231.419 385.759 231.419 385.759 229.943C385.759 227.731 384.468 226.255 381.886 226.255C379.305 226.255 377.829 227.546 377.276 229.021L373.588 228.099C374.879 224.411 378.198 222.936 381.886 222.936C385.021 222.936 389.631 224.043 389.631 229.943V243.22H385.759V240.454H385.574C384.837 241.929 382.993 243.589 379.673 243.589C375.801 243.958 372.851 241.745 372.851 237.872ZM385.759 236.397V233.816C385.205 234.369 382.255 234.738 380.964 234.922C378.751 235.291 376.907 236.028 376.907 238.057C376.907 239.901 378.567 241.007 380.78 241.007C383.73 240.823 385.759 238.61 385.759 236.397ZM395.163 216.851H399.035V226.809H399.22C399.957 225.518 401.248 223.305 404.936 223.305C409.73 223.305 413.418 227.177 413.418 233.631C413.418 240.085 409.915 243.958 404.936 243.958C401.248 243.958 399.773 241.745 399.035 240.454H398.666V243.589H394.794V216.851H395.163ZM404.198 240.638C407.702 240.638 409.546 237.504 409.546 233.447C409.546 229.39 407.702 226.44 404.198 226.44C400.695 226.44 399.035 229.206 399.035 233.447C399.035 237.688 400.879 240.638 404.198 240.638ZM429.461 229.021C429.092 227.731 427.801 226.255 425.404 226.255C423.191 226.255 421.532 227.362 421.532 228.837C421.532 230.128 422.454 230.865 424.666 231.419L427.801 232.156C431.489 233.078 433.333 234.738 433.333 237.688C433.333 241.376 430.014 243.958 425.035 243.958C420.61 243.958 417.475 241.929 416.922 238.426L420.794 237.872C421.347 239.901 422.822 240.823 425.035 240.823C427.617 240.823 429.276 239.532 429.276 238.057C429.276 236.766 428.354 236.028 426.51 235.475L423.191 234.738C419.503 233.816 417.659 231.972 417.659 229.206C417.659 225.702 420.794 223.305 425.404 223.305C429.829 223.305 432.227 225.333 432.964 228.468L429.461 229.021Z" fill="#F35A69"/>
<path d="M171.489 81.3191V53.4751C171.489 49.0496 167.986 45.5461 163.56 45.5461H161.532C158.766 40.5674 155.631 35.773 152.128 31.5319L158.95 23.6028L160.794 21.3901C163.191 18.6241 163.745 14.7518 162.085 11.617C160.61 8.29787 157.291 6.2695 153.787 6.2695H129.262C122.44 6.2695 115.801 5.34751 109.347 3.50354C101.787 1.10638 93.8581 0 85.7446 0C77.6312 0 69.7021 1.10638 62.1418 3.31915C55.6879 5.16312 49.0496 6.0851 42.2269 6.0851H17.8865C14.1986 6.0851 11.0638 8.11347 9.58865 11.4326C7.92907 14.7518 8.48226 18.6241 10.8794 21.3901L19.3617 31.5319C15.8581 35.9574 12.539 40.5674 9.95744 45.7305H7.92907C3.50354 45.5461 0 49.0496 0 53.4751V81.3191V85.7446C0 99.5744 3.31915 113.22 9.58865 125.39C3.31915 137.56 0 151.021 0 164.851C0 182.553 5.53191 199.886 15.6737 214.269L15.4894 214.454L19.1773 219.064L23.7872 224.78L23.9716 224.596C40.0142 241.191 62.1418 250.78 85.5602 250.78C89.2482 250.78 92.7517 250.596 96.4397 250.042C101.05 249.489 104.553 246.17 105.475 241.745C105.475 241.376 105.66 241.007 105.66 240.638C106.95 241.191 108.241 241.745 109.347 242.298C122.624 248.014 136.823 250.78 151.39 250.78H160.61C166.511 250.78 171.12 245.986 171.12 240.269V164.851C171.12 151.021 167.801 137.376 161.347 125.206C167.617 113.035 171.12 99.39 171.12 85.5602V81.3191H171.489ZM85.7446 88.695L84.8226 87.5886C85.1914 87.5886 85.5602 87.5886 85.929 87.5886C86.1134 87.5886 86.4822 87.5886 86.6666 87.5886L85.7446 88.695Z" fill="white"/>
<path d="M163.56 52.1846H154.525C148.993 42.2272 138.482 36.1421 127.049 36.1421H44.8084C33.3758 36.1421 22.8651 42.2272 17.3332 52.1846H7.92896C7.19138 52.1846 6.63818 52.7378 6.63818 53.4754V81.3194C6.63818 82.057 7.19138 82.6101 7.92896 82.6101H16.9644C25.2623 97.9151 44.4396 103.631 59.7445 95.3335C62.8793 93.674 65.8296 91.2768 68.2268 88.6953C72.6523 83.7165 79.1062 80.9506 85.7445 80.9506C92.3828 80.9506 98.6523 83.7165 103.078 88.5109C109.163 95.3335 117.645 99.2059 126.865 99.2059C138.482 99.2059 149.177 92.752 154.709 82.6101H163.56C164.298 82.6101 164.851 82.057 164.851 81.3194V53.4754C164.851 52.7378 164.298 52.1846 163.56 52.1846ZM126.865 96.6243C118.567 96.6243 111.007 93.1208 105.291 86.8513C100.312 81.5038 93.3048 78.369 85.9289 78.369C78.553 78.369 71.3616 81.5038 66.3828 87.0357C55.6878 98.8371 37.4325 99.7591 25.6311 89.064C13.8297 78.369 12.9077 60.1137 23.6027 48.3123C29.1346 42.2272 36.8793 38.7236 44.9928 38.7236H127.049C142.908 38.7236 156 51.6314 156 67.674C155.815 83.5321 142.908 96.6243 126.865 96.6243Z" fill="#F35A69"/>
<path d="M15.8582 16.9649C14.383 15.3053 15.6738 12.7238 17.8866 12.7238H42.227C49.6029 12.7238 56.7944 11.8018 63.8014 9.77342C70.8085 7.74505 78 6.63867 85.7447 6.63867C93.4894 6.63867 100.681 7.74505 107.688 9.77342C114.695 11.8018 122.071 12.7238 129.262 12.7238H153.603C155.816 12.7238 157.106 15.3053 155.631 17.1493L145.674 28.9507C144.383 30.4259 144.383 32.6387 145.674 34.1138C149.177 38.1706 152.312 42.5961 154.894 47.206C148.44 38.5394 138.113 33.1918 127.05 33.1918H44.8085C33.0071 33.1918 21.9433 39.277 15.6738 49.2344C18.4398 43.8869 21.9433 38.7238 26 34.1138C27.2908 32.6387 27.2908 30.4259 26 28.9507L15.8582 16.9649ZM78 63.6174C78 56.4259 72.0993 50.3408 64.7234 50.3408C57.3475 50.3408 51.6312 56.2415 51.6312 63.6174C51.6312 70.9932 57.5319 76.894 64.9078 76.894C72.2837 76.894 78 70.8088 78 63.6174ZM106.582 76.7096C99.3901 76.7096 93.305 70.8088 93.305 63.433C93.305 56.0571 99.2057 50.1564 106.582 50.1564C113.957 50.1564 119.858 56.0571 119.858 63.433C119.858 70.8088 113.957 76.7096 106.582 76.7096ZM33.0071 164.851C33.0071 135.717 56.61 112.114 85.7447 112.114C114.879 112.114 138.482 135.717 138.482 164.851V216.298C123.546 213.532 109.532 206.525 98.6525 195.646C84.4539 181.447 76.5248 162.454 76.5248 142.355C76.5248 136.27 77.2624 130.369 78.5532 124.653C79.2908 121.887 76.7092 119.305 73.9433 120.043C67.1206 121.887 60.6667 125.206 55.3192 130C54.9504 130.369 54.5816 130.738 54.2128 131.107C51.8156 133.319 50.3405 136.639 50.3405 139.958C50.3405 140.695 50.3405 141.433 50.3405 142.355C50.3405 156 53.1064 169.277 58.2695 181.816C63.4327 193.986 70.6241 204.681 80.0284 214.085C89.4326 223.49 100.128 230.681 112.298 235.844C124.837 241.192 138.113 243.773 151.759 243.773H160.979C163.191 243.773 164.851 241.929 164.851 239.901V164.851C164.851 150.468 160.979 137.007 154.156 125.206C160.979 113.589 164.851 100.128 164.851 85.5606V85.3762C164.482 85.5606 163.929 85.5606 163.56 85.5606H156.553C150.284 95.8869 139.035 102.156 127.05 102.156C117.092 102.156 107.688 97.7308 101.05 90.3549C99.7589 89.0642 98.2837 87.7734 96.8085 86.8514C96.0709 87.2202 95.1489 87.589 94.5958 88.3266L85.9291 98.6528L77.2624 88.3266C76.7092 87.7734 75.9717 87.2202 75.2341 86.8514C73.5745 87.7734 72.0993 89.0642 70.8085 90.5393C68.227 93.4897 65.0922 95.8868 61.5887 97.9152C56.61 100.681 50.8937 102.156 45.1773 102.156C33.0071 102.156 21.7589 95.8869 15.4894 85.5606H8.11353C7.56034 85.5606 7.19155 85.3762 6.82275 85.3762V85.5606C6.82275 99.9436 10.6951 113.589 17.5178 125.206C10.6951 136.823 6.82275 150.284 6.82275 164.667C6.82275 183.66 13.461 200.993 24.7093 214.639C39.2766 232.341 61.2199 243.773 85.9291 243.773C89.4326 243.773 92.7518 243.589 96.0709 243.22C99.7589 242.667 100.865 237.873 97.5461 235.844C89.4326 231.234 82.0568 225.518 75.4185 218.695C73.5745 216.851 71.3617 215.376 68.7802 214.454C59.1915 211.135 50.7093 205.05 44.4398 197.121C37.2483 188.454 33.0071 177.206 33.0071 164.851Z" fill="#221C35"/>
</svg>
