<svg width="110" height="50" viewBox="0 0 110 50" fill="none" xmlns="http://www.w3.org/2000/svg">
<path d="M37.7354 17.1048H41.5657C41.8147 17.1048 42.0282 17.2839 42.0697 17.5347C42.2832 18.7048 43.3445 19.5884 44.6786 19.5884C46.1075 19.5884 47.1748 18.6989 47.1748 17.5645C47.1748 16.1257 45.4375 15.3556 43.4631 14.8362C40.4214 14.072 37.4983 12.2272 37.4983 8.21528C37.4983 4.62722 40.54 1.92871 44.56 1.92871C48.4496 1.92871 51.3905 4.40035 51.6869 7.78543C51.7166 8.09587 51.4735 8.36453 51.1652 8.36453H47.3349C47.0799 8.36453 46.8724 8.17946 46.825 7.92871C46.6293 6.89587 45.734 6.15558 44.5541 6.15558C43.2733 6.15558 42.3306 6.94961 42.3306 8.02423C42.3306 9.37349 43.7299 10.1078 45.7696 10.663C48.9654 11.5227 52.013 13.0869 52.013 17.2541C52.013 20.9914 48.8468 23.8153 44.6133 23.8153C40.5993 23.8153 37.516 21.2183 37.2077 17.678C37.1899 17.3735 37.4271 17.1048 37.7354 17.1048Z" fill="#F35A69"/>
<path d="M66.593 13.182V22.9373C66.593 23.2238 66.3617 23.4567 66.0771 23.4567H62.905C62.6204 23.4567 62.3892 23.2238 62.3892 22.9373V22.5373C61.4168 23.3313 60.136 23.8268 58.7071 23.8268C55.6002 23.8268 53.1692 21.588 53.1692 18.6447C53.1692 15.6716 55.6061 13.4328 58.7071 13.4328C60.0175 13.4328 61.2033 13.8328 62.1461 14.5373V13.2179C62.1461 11.9582 61.3575 11.1641 60.136 11.1641C59.2348 11.1641 58.547 11.582 58.2861 12.2507C58.1972 12.4835 57.9837 12.6328 57.7347 12.6328H54.4203C54.0289 12.6328 53.7325 12.2507 53.8392 11.8686C54.5685 9.26562 56.9105 7.4507 60.1894 7.4507C63.8833 7.44472 66.593 9.77905 66.593 13.182ZM62.152 18.6388C62.152 17.6298 61.1796 16.8298 59.9285 16.8298C58.713 16.8298 57.7347 17.6238 57.7347 18.6388C57.7347 19.6179 58.7071 20.4179 59.9285 20.4179C61.1737 20.4119 62.152 19.6179 62.152 18.6388Z" fill="#F35A69"/>
<path d="M96.3576 13.182V22.9373C96.3576 23.2238 96.1264 23.4567 95.8418 23.4567H92.6697C92.3851 23.4567 92.1538 23.2238 92.1538 22.9373V22.5373C91.1814 23.3313 89.9007 23.8268 88.4717 23.8268C85.3648 23.8268 82.9338 21.588 82.9338 18.6447C82.9338 15.6716 85.3708 13.4328 88.4717 13.4328C89.7821 13.4328 90.968 13.8328 91.9107 14.5373V13.2179C91.9107 11.9582 91.1221 11.1641 89.9007 11.1641C88.9995 11.1641 88.3117 11.582 88.0508 12.2507C87.9618 12.4835 87.7484 12.6328 87.4994 12.6328H84.1849C83.7936 12.6328 83.4971 12.2507 83.6038 11.8686C84.3331 9.26562 86.6752 7.4507 89.9541 7.4507C93.648 7.44472 96.3576 9.77905 96.3576 13.182ZM91.9166 18.6388C91.9166 17.6298 90.9442 16.8298 89.6932 16.8298C88.4777 16.8298 87.4994 17.6238 87.4994 18.6388C87.4994 19.6179 88.4717 20.4179 89.6932 20.4179C90.9383 20.4119 91.9166 19.6179 91.9166 18.6388Z" fill="#F35A69"/>
<path d="M63.6343 38.0482V47.8035C63.6343 48.09 63.403 48.3229 63.1184 48.3229H59.9463C59.6617 48.3229 59.4304 48.09 59.4304 47.8035V47.4035C58.458 48.1975 57.1773 48.693 55.7484 48.693C52.6414 48.693 50.2104 46.4542 50.2104 43.5109C50.2104 40.5378 52.6474 38.299 55.7484 38.299C57.0587 38.299 58.2446 38.699 59.1873 39.4035V38.0841C59.1873 36.8244 58.3987 36.0303 57.1773 36.0303C56.2761 36.0303 55.5883 36.4482 55.3274 37.1169C55.2384 37.3497 55.025 37.499 54.776 37.499H51.4615C51.0702 37.499 50.7737 37.1169 50.8805 36.7348C51.6098 34.1318 53.9518 32.3169 57.2307 32.3169C60.9246 32.3169 63.6343 34.6453 63.6343 38.0482ZM59.1873 43.505C59.1873 42.496 58.2149 41.696 56.9639 41.696C55.7484 41.696 54.77 42.49 54.77 43.505C54.77 44.4841 55.7424 45.2841 56.9639 45.2841C58.2149 45.2841 59.1873 44.4841 59.1873 43.505Z" fill="#F35A69"/>
<path d="M98.6939 18.6987H101.635C101.979 18.6987 102.281 18.9196 102.406 19.242C102.637 19.833 103.236 20.2569 103.947 20.2569C104.801 20.2569 105.471 19.7375 105.471 19.0628C105.471 18.0837 104.255 17.624 102.975 17.3434C100.633 16.7942 98.0713 15.5942 98.0713 12.3763C98.0713 9.15837 100.781 7.43896 103.858 7.43896C106.811 7.43896 109.106 9.13449 109.604 11.4031C109.71 11.8808 109.349 12.3405 108.863 12.3405H105.839C105.554 12.3405 105.281 12.1793 105.186 11.9106C105.003 11.3793 104.481 10.9912 103.829 10.9912C103.099 10.9912 102.518 11.4808 102.518 12.0658C102.518 12.9554 103.585 13.4449 105.103 13.8151C107.445 14.4002 109.912 15.4987 109.912 18.6569C109.912 21.9345 107.202 23.8091 103.912 23.8091C100.811 23.8091 98.4448 22.0002 97.9468 19.624C97.8519 19.1524 98.2077 18.6987 98.6939 18.6987Z" fill="#F35A69"/>
<path d="M84.167 43.5644H87.1079C87.4518 43.5644 87.7542 43.7853 87.8787 44.1077C88.1099 44.6987 88.7088 45.1226 89.4203 45.1226C90.2741 45.1226 90.9441 44.6032 90.9441 43.9286C90.9441 42.9495 89.7286 42.4898 88.4479 42.2092C86.1059 41.6599 83.5444 40.4599 83.5444 37.242C83.5444 34.0241 86.2541 32.3047 89.3314 32.3047C92.2841 32.3047 94.5787 34.0002 95.0768 36.2689C95.1835 36.7465 94.8218 37.2062 94.3356 37.2062H91.3117C91.0271 37.2062 90.7544 37.045 90.6595 36.7763C90.4757 36.245 89.9539 35.8569 89.3017 35.8569C88.5724 35.8569 87.9914 36.3465 87.9914 36.9316C87.9914 37.8211 89.0586 38.3107 90.5765 38.6808C92.9185 39.2659 95.3851 40.3644 95.3851 43.5226C95.3851 46.8002 92.6755 48.6748 89.3847 48.6748C86.2837 48.6748 83.918 46.8659 83.4199 44.4898C83.325 44.0181 83.6808 43.5644 84.167 43.5644Z" fill="#F35A69"/>
<path d="M49.6115 44.4417V47.7193C49.6115 48.0476 49.3447 48.3163 49.0186 48.3163H38.8559C38.5298 48.3163 38.2629 48.0476 38.2629 47.7193V27.7611C38.2629 27.4327 38.5298 27.1641 38.8559 27.1641H42.3838C42.7099 27.1641 42.9767 27.4327 42.9767 27.7611V43.8387H49.0186C49.3447 43.8387 49.6115 44.1074 49.6115 44.4417Z" fill="#F35A69"/>
<path d="M82.6376 40.5018C82.6376 45.1586 79.4417 48.6869 75.1489 48.6869C73.2279 48.6869 71.6151 47.8929 70.4589 46.5735V47.5406C70.4589 47.9705 70.1091 48.3227 69.6822 48.3227H66.7887C66.3618 48.3227 66.012 47.9705 66.012 47.5406V27.0272C66.012 26.5974 66.3618 26.2451 66.7887 26.2451H69.6762C70.1031 26.2451 70.453 26.5974 70.453 27.0272V34.4302C71.6092 33.1108 73.2219 32.3168 75.143 32.3168C79.4417 32.3168 82.6376 35.8391 82.6376 40.5018ZM78.072 40.5018C78.072 38.2929 76.4593 36.6391 74.2655 36.6391C72.0717 36.6391 70.4589 38.2929 70.4589 40.5018C70.4589 42.7108 72.0717 44.3645 74.2655 44.3645C76.4593 44.3645 78.072 42.7048 78.072 40.5018Z" fill="#F35A69"/>
<path d="M77.3841 8.5433C77.2892 12.1851 76.5006 16.2508 75.1428 19.4209C73.785 16.2508 72.9964 12.1851 72.9016 8.5433C72.8897 8.13733 72.5695 7.81494 72.1663 7.81494H68.929C68.5199 7.81494 68.1819 8.15524 68.1878 8.57315C68.3064 13.7254 69.6168 18.5911 71.8462 22.8896C72.024 23.2358 72.3857 23.4508 72.7771 23.4508H77.5086C77.894 23.4508 78.2557 23.2358 78.4395 22.8896C80.6748 18.5851 81.9792 13.7254 82.0978 8.57315C82.1097 8.16121 81.7658 7.81494 81.3567 7.81494H78.1193C77.7161 7.81494 77.3959 8.13733 77.3841 8.5433Z" fill="#F35A69"/>
<path d="M32.8878 32.8874C32.8878 30.0105 32.1178 27.3186 30.7749 24.9968C29.9571 23.5822 28.9186 22.3049 27.7189 21.2066C27.695 21.1828 27.6651 21.1649 27.6413 21.141C27.5279 21.0395 27.4145 20.938 27.2951 20.8366C27.2593 20.8067 27.2175 20.7769 27.1817 20.7411C27.128 20.6993 27.0742 20.6515 27.0205 20.6098C26.9787 20.5799 26.937 20.5441 26.9012 20.5143C26.8653 20.4844 26.7877 20.4247 26.7877 20.4247C24.7882 18.8669 22.4127 17.7806 19.8103 17.3329C19.4462 17.2673 19.0762 17.4105 18.8374 17.6911L17.0945 19.7324L15.3517 17.6911C15.1129 17.4105 14.7429 17.2732 14.3788 17.3329C11.6809 17.7985 9.21582 18.9564 7.16855 20.6098C6.75074 19.428 6.53587 18.1566 6.57168 16.8256C6.71493 11.1434 11.4004 6.57729 17.0886 6.57729C22.8961 6.57132 27.6174 11.2986 27.6174 17.1002C27.6174 17.6433 27.5756 18.1745 27.498 18.6998C27.4443 19.034 27.5816 19.3742 27.8442 19.5891C28.8947 20.4426 29.8378 21.4036 30.6555 22.466C31.0375 22.9614 31.8194 22.8301 32.0283 22.2392C32.5834 20.6277 32.8818 18.9027 32.8818 17.1002C32.8818 13.1489 31.4314 9.53778 29.032 6.77426C28.7753 6.47583 28.7694 6.04011 29.026 5.74167L31.0255 3.39596C31.318 3.05575 31.0733 2.5305 30.6256 2.5305H25.7731C24.3107 2.5305 22.8544 2.32756 21.4517 1.92766C20.067 1.52775 18.6046 1.31885 17.0886 1.31885C15.5725 1.31885 14.1102 1.53372 12.7254 1.92766C11.3228 2.33353 9.86641 2.5305 8.40408 2.5305H3.56941C3.12176 2.5305 2.87704 3.05575 3.16951 3.39596L5.16903 5.74167C5.42568 6.04011 5.41971 6.47583 5.16306 6.77426C2.76363 9.53778 1.31323 13.1489 1.31323 17.1002C1.31323 19.5055 1.85042 21.7796 2.81138 23.8209C2.88898 23.9821 2.96657 24.1432 3.05013 24.3044C3.07401 24.3581 3.10385 24.4059 3.12772 24.4596C3.15757 24.5133 3.18741 24.573 3.21726 24.6267C3.28291 24.7461 3.34857 24.8714 3.42019 24.9908C3.3426 25.1221 3.27097 25.2594 3.19935 25.3907C3.1516 25.4743 3.10982 25.5638 3.06207 25.6533C3.03819 25.6951 3.02029 25.7369 2.99641 25.7787C2.93673 25.8921 2.88301 26.0115 2.82929 26.1249C2.82332 26.1368 2.81735 26.1487 2.81138 26.1607C2.75169 26.286 2.69201 26.4173 2.63829 26.5486C1.78476 28.4944 1.31323 30.6313 1.31323 32.8874C1.31323 36.6716 2.64426 40.1454 4.86462 42.8612C7.75945 46.4066 12.1584 48.6687 17.0886 48.6687C17.775 48.6687 18.4435 48.627 19.106 48.5434C19.8521 48.4479 20.0491 47.4571 19.3985 47.0811C17.7929 46.1499 16.3126 45.0099 14.9816 43.6789L14.9756 43.6729C14.6056 43.3029 14.1579 43.0044 13.6625 42.8373C11.7346 42.1688 10.0574 40.9571 8.81592 39.3814C7.4073 37.5908 6.56571 35.3346 6.56571 32.8874C6.56571 31.6579 6.78058 30.4761 7.16855 29.3778C7.15064 29.3659 7.13871 29.3539 7.1208 29.336C7.13871 29.348 7.15064 29.3599 7.16855 29.3778C7.77139 27.6708 8.80398 26.1666 10.135 24.9908C11.9913 23.3554 14.4265 22.3586 17.0886 22.3586C19.7506 22.3586 22.1859 23.3554 24.0421 24.9908C25.3732 26.1666 26.4057 27.6708 27.0086 29.3778C27.3966 30.4761 27.6114 31.6579 27.6114 32.8874C27.6114 32.8874 27.6114 32.8874 27.6114 32.8934V43.1656C24.6211 42.6224 21.8277 41.2078 19.6492 39.0352C16.808 36.2001 15.2442 32.4278 15.2442 28.4169C15.2442 27.2171 15.3815 26.0413 15.662 24.8893C15.7934 24.3342 15.28 23.8388 14.7309 23.9821C13.3641 24.3462 12.0868 25.0266 11.0064 25.9756C10.9288 26.0413 10.8513 26.1129 10.7796 26.1846C10.2902 26.6441 10.0097 27.2828 9.99176 27.9513C9.98579 28.1065 9.98579 28.2617 9.98579 28.4169C9.98579 31.1505 10.523 33.8066 11.5794 36.3015C12.6001 38.7129 14.0624 40.8796 15.9187 42.7418C17.7809 44.604 19.9476 46.0604 22.359 47.0811C24.8598 48.1375 27.51 48.6747 30.2436 48.6747H32.088C32.5237 48.6747 32.8758 48.3226 32.8758 47.8868L32.8878 32.8874Z" fill="#221C35"/>
<path d="M15.75 13.6935C15.6121 13.8326 15.3896 13.8421 15.236 13.7188C14.6751 13.2604 13.9825 13.0138 13.2555 13.0138C12.5254 13.0138 11.836 13.2604 11.2719 13.7188C11.1183 13.8421 10.899 13.8357 10.758 13.6935L9.77398 12.7009C9.61729 12.5428 9.62669 12.2836 9.79278 12.135C10.758 11.3004 11.9707 10.8421 13.2524 10.8452C14.5341 10.8452 15.75 11.3036 16.712 12.1382C16.8812 12.2836 16.8875 12.546 16.7308 12.704L15.75 13.6935Z" fill="#221C35"/>
<path d="M21.2728 15.3098C22.7266 15.3098 23.905 14.1313 23.905 12.6776C23.905 11.2239 22.7266 10.0454 21.2728 10.0454C19.8191 10.0454 18.6406 11.2239 18.6406 12.6776C18.6406 14.1313 19.8191 15.3098 21.2728 15.3098Z" fill="#221C35"/>
</svg>
