<svg width="32" height="25" viewBox="0 0 32 25" fill="none" xmlns="http://www.w3.org/2000/svg">
<path d="M31.4777 2.95962C30.3335 3.46154 29.1143 3.79423 27.8431 3.95577C29.1508 3.175 30.1489 1.94808 30.6181 0.469231C29.3989 1.19615 28.0527 1.70962 26.6181 1.99615C25.4604 0.763462 23.8104 0 22.0104 0C18.5181 0 15.7066 2.83462 15.7066 6.30962C15.7066 6.80962 15.7489 7.29038 15.8527 7.74808C10.6085 7.49231 5.96811 4.97885 2.8508 1.15C2.30657 2.09423 1.98734 3.175 1.98734 4.33846C1.98734 6.52308 3.11234 8.45961 4.78927 9.58077C3.7758 9.56154 2.78157 9.26731 1.93927 8.80385C1.93927 8.82308 1.93927 8.84808 1.93927 8.87308C1.93927 11.9385 4.1258 14.4846 6.99311 15.0712C6.47965 15.2115 5.92003 15.2788 5.33927 15.2788C4.93542 15.2788 4.52773 15.2558 4.14503 15.1712C4.96234 17.6692 7.28157 19.5058 10.0393 19.5654C7.89311 21.2442 5.16811 22.2558 2.21811 22.2558C1.7008 22.2558 1.20465 22.2327 0.708496 22.1692C3.50273 23.9712 6.81427 25 10.3854 25C21.9931 25 28.3393 15.3846 28.3393 7.05C28.3393 6.77115 28.3296 6.50192 28.3162 6.23462C29.5681 5.34615 30.62 4.23654 31.4777 2.95962Z" fill="#F35A69"/>
</svg>
