<svg width="110" height="50" viewBox="0 0 110 50" fill="none" xmlns="http://www.w3.org/2000/svg">
<path d="M37.5318 17.1047H41.3621C41.6111 17.1047 41.8246 17.2838 41.8661 17.5346C42.0795 18.7047 43.1409 19.5883 44.475 19.5883C45.9039 19.5883 46.9712 18.6987 46.9712 17.5644C46.9712 16.1256 45.2339 15.3555 43.2595 14.8361C40.2178 14.0719 37.2946 12.2271 37.2946 8.21516C37.2946 4.6271 40.3363 1.92859 44.3564 1.92859C48.246 1.92859 51.1869 4.40023 51.4833 7.7853C51.513 8.09575 51.2699 8.36441 50.9615 8.36441H47.1313C46.8763 8.36441 46.6688 8.17933 46.6213 7.92859C46.4257 6.89575 45.5304 6.15545 44.3504 6.15545C43.0697 6.15545 42.127 6.94948 42.127 8.02411C42.127 9.37336 43.5263 10.1077 45.5659 10.6629C48.7618 11.5226 51.8094 13.0868 51.8094 17.254C51.8094 20.9913 48.6432 23.8152 44.4097 23.8152C40.3956 23.8152 37.3124 21.2181 37.0041 17.6778C36.9863 17.3734 37.2235 17.1047 37.5318 17.1047Z" fill="#F35A69"/>
<path d="M66.3893 13.182V22.9373C66.3893 23.2238 66.1581 23.4567 65.8735 23.4567H62.7013C62.4167 23.4567 62.1855 23.2238 62.1855 22.9373V22.5373C61.2131 23.3313 59.9324 23.8268 58.5034 23.8268C55.3965 23.8268 52.9655 21.588 52.9655 18.6447C52.9655 15.6716 55.4024 13.4328 58.5034 13.4328C59.8138 13.4328 60.9996 13.8328 61.9424 14.5373V13.2179C61.9424 11.9582 61.1538 11.1641 59.9324 11.1641C59.0311 11.1641 58.3433 11.582 58.0824 12.2507C57.9935 12.4835 57.7801 12.6328 57.531 12.6328H54.2166C53.8253 12.6328 53.5288 12.2507 53.6355 11.8686C54.3648 9.26562 56.7069 7.4507 59.9857 7.4507C63.6797 7.44472 66.3893 9.77905 66.3893 13.182ZM61.9483 18.6388C61.9483 17.6298 60.9759 16.8298 59.7249 16.8298C58.5094 16.8298 57.531 17.6238 57.531 18.6388C57.531 19.6179 58.5034 20.4179 59.7249 20.4179C60.97 20.4119 61.9483 19.6179 61.9483 18.6388Z" fill="#F35A69"/>
<path d="M96.154 13.182V22.9373C96.154 23.2238 95.9227 23.4567 95.6381 23.4567H92.466C92.1814 23.4567 91.9501 23.2238 91.9501 22.9373V22.5373C90.9777 23.3313 89.697 23.8268 88.2681 23.8268C85.1612 23.8268 82.7302 21.588 82.7302 18.6447C82.7302 15.6716 85.1671 13.4328 88.2681 13.4328C89.5784 13.4328 90.7643 13.8328 91.707 14.5373V13.2179C91.707 11.9582 90.9184 11.1641 89.697 11.1641C88.7958 11.1641 88.108 11.582 87.8471 12.2507C87.7582 12.4835 87.5447 12.6328 87.2957 12.6328H83.9812C83.5899 12.6328 83.2934 12.2507 83.4002 11.8686C84.1295 9.26562 86.4715 7.4507 89.7504 7.4507C93.4443 7.44472 96.154 9.77905 96.154 13.182ZM91.713 18.6388C91.713 17.6298 90.7406 16.8298 89.4895 16.8298C88.274 16.8298 87.2957 17.6238 87.2957 18.6388C87.2957 19.6179 88.2681 20.4179 89.4895 20.4179C90.7346 20.4119 91.713 19.6179 91.713 18.6388Z" fill="#F35A69"/>
<path d="M63.4306 38.0479V47.8031C63.4306 48.0897 63.1993 48.3225 62.9147 48.3225H59.7426C59.458 48.3225 59.2267 48.0897 59.2267 47.8031V47.4031C58.2544 48.1971 56.9736 48.6926 55.5447 48.6926C52.4378 48.6926 50.0068 46.4538 50.0068 43.5106C50.0068 40.5374 52.4437 38.2986 55.5447 38.2986C56.8551 38.2986 58.0409 38.6986 58.9836 39.4031V38.0837C58.9836 36.824 58.1951 36.03 56.9736 36.03C56.0724 36.03 55.3846 36.4479 55.1237 37.1165C55.0348 37.3494 54.8213 37.4986 54.5723 37.4986H51.2578C50.8665 37.4986 50.5701 37.1165 50.6768 36.7344C51.4061 34.1315 53.7481 32.3165 57.027 32.3165C60.7209 32.3165 63.4306 34.6449 63.4306 38.0479ZM58.9836 43.5046C58.9836 42.4956 58.0113 41.6956 56.7602 41.6956C55.5447 41.6956 54.5664 42.4897 54.5664 43.5046C54.5664 44.4837 55.5388 45.2837 56.7602 45.2837C58.0113 45.2837 58.9836 44.4837 58.9836 43.5046Z" fill="#F35A69"/>
<path d="M98.4902 18.6985H101.431C101.775 18.6985 102.077 18.9194 102.202 19.2418C102.433 19.8329 103.032 20.2568 103.744 20.2568C104.597 20.2568 105.267 19.7374 105.267 19.0627C105.267 18.0836 104.052 17.6239 102.771 17.3433C100.429 16.7941 97.8676 15.5941 97.8676 12.3762C97.8676 9.15825 100.577 7.43884 103.655 7.43884C106.607 7.43884 108.902 9.13437 109.4 11.403C109.507 11.8806 109.145 12.3403 108.659 12.3403H105.635C105.35 12.3403 105.078 12.1791 104.983 11.9105C104.799 11.3791 104.277 10.9911 103.625 10.9911C102.896 10.9911 102.315 11.4806 102.315 12.0657C102.315 12.9553 103.382 13.4448 104.9 13.815C107.242 14.4 109.708 15.4985 109.708 18.6568C109.708 21.9344 106.999 23.809 103.708 23.809C100.607 23.809 98.2412 22 97.7431 19.6239C97.6483 19.1523 98.004 18.6985 98.4902 18.6985Z" fill="#F35A69"/>
<path d="M83.9635 43.564H86.9044C87.2483 43.564 87.5507 43.7849 87.6752 44.1073C87.9064 44.6983 88.5053 45.1222 89.2168 45.1222C90.0706 45.1222 90.7406 44.6028 90.7406 43.9282C90.7406 42.9491 89.5251 42.4894 88.2444 42.2088C85.9024 41.6595 83.3409 40.4595 83.3409 37.2416C83.3409 34.0237 86.0506 32.3043 89.1279 32.3043C92.0806 32.3043 94.3752 33.9998 94.8733 36.2685C94.98 36.7461 94.6183 37.2058 94.1321 37.2058H91.1082C90.8236 37.2058 90.5509 37.0446 90.456 36.776C90.2722 36.2446 89.7504 35.8566 89.0982 35.8566C88.3689 35.8566 87.7879 36.3461 87.7879 36.9312C87.7879 37.8207 88.8551 38.3103 90.373 38.6804C92.7151 39.2655 95.1816 40.364 95.1816 43.5222C95.1816 46.7998 92.472 48.6745 89.1812 48.6745C86.0802 48.6745 83.7145 46.8655 83.2164 44.4894C83.1216 44.0178 83.4773 43.564 83.9635 43.564Z" fill="#F35A69"/>
<path d="M49.4079 44.4418V47.7194C49.4079 48.0478 49.1411 48.3164 48.815 48.3164H38.6523C38.3261 48.3164 38.0593 48.0478 38.0593 47.7194V27.7612C38.0593 27.4328 38.3261 27.1642 38.6523 27.1642H42.1801C42.5063 27.1642 42.7731 27.4328 42.7731 27.7612V43.8388H48.815C49.1411 43.8388 49.4079 44.1075 49.4079 44.4418Z" fill="#F35A69"/>
<path d="M82.4339 40.5015C82.4339 45.1582 79.238 48.6865 74.9453 48.6865C73.0242 48.6865 71.4114 47.8925 70.2552 46.5731V47.5403C70.2552 47.9701 69.9054 48.3224 69.4785 48.3224H66.585C66.1581 48.3224 65.8083 47.9701 65.8083 47.5403V27.0268C65.8083 26.597 66.1581 26.2448 66.585 26.2448H69.4726C69.8995 26.2448 70.2493 26.597 70.2493 27.0268V34.4298C71.4055 33.1104 73.0182 32.3164 74.9393 32.3164C79.238 32.3164 82.4339 35.8388 82.4339 40.5015ZM77.8684 40.5015C77.8684 38.2925 76.2556 36.6388 74.0618 36.6388C71.868 36.6388 70.2552 38.2925 70.2552 40.5015C70.2552 42.7104 71.868 44.3642 74.0618 44.3642C76.2556 44.3642 77.8684 42.7045 77.8684 40.5015Z" fill="#F35A69"/>
<path d="M77.1804 8.5433C77.0855 12.1851 76.2969 16.2508 74.9391 19.4209C73.5813 16.2508 72.7928 12.1851 72.6979 8.5433C72.686 8.13733 72.3659 7.81494 71.9627 7.81494H68.7253C68.3162 7.81494 67.9782 8.15524 67.9841 8.57315C68.1027 13.7254 69.4131 18.5911 71.6425 22.8896C71.8204 23.2358 72.182 23.4508 72.5734 23.4508H77.3049C77.6903 23.4508 78.052 23.2358 78.2358 22.8896C80.4711 18.5851 81.7756 13.7254 81.8941 8.57315C81.906 8.16121 81.5621 7.81494 81.153 7.81494H77.9156C77.5124 7.81494 77.1923 8.13733 77.1804 8.5433Z" fill="#F35A69"/>
<path d="M32.8878 32.8877C32.8878 30.0107 32.1178 27.3189 30.7749 24.997C29.9571 23.5824 28.9186 22.3051 27.7189 21.2069C27.695 21.183 27.6651 21.1651 27.6413 21.1412C27.5279 21.0398 27.4145 20.9383 27.2951 20.8368C27.2593 20.807 27.2175 20.7771 27.1817 20.7413C27.128 20.6995 27.0742 20.6518 27.0205 20.61C26.9787 20.5802 26.937 20.5444 26.9012 20.5145C26.8653 20.4847 26.7877 20.425 26.7877 20.425C24.7882 18.8671 22.4127 17.7808 19.8103 17.3332C19.4462 17.2675 19.0762 17.4108 18.8374 17.6913L17.0945 19.7326L15.3517 17.6913C15.1129 17.4108 14.7429 17.2735 14.3788 17.3332C11.6809 17.7987 9.21582 18.9567 7.16855 20.61C6.75074 19.4282 6.53587 18.1569 6.57168 16.8258C6.71493 11.1436 11.4004 6.57754 17.0886 6.57754C22.8961 6.57157 27.6174 11.2988 27.6174 17.1004C27.6174 17.6436 27.5756 18.1748 27.498 18.7C27.4443 19.0343 27.5816 19.3745 27.8442 19.5894C28.8947 20.4429 29.8378 21.4038 30.6555 22.4663C31.0375 22.9617 31.8194 22.8304 32.0283 22.2395C32.5834 20.6279 32.8818 18.903 32.8818 17.1004C32.8818 13.1491 31.4314 9.53802 29.032 6.77451C28.7753 6.47607 28.7694 6.04035 29.026 5.74192L31.0255 3.39621C31.318 3.05599 31.0733 2.53074 30.6256 2.53074H25.7731C24.3107 2.53074 22.8544 2.32781 21.4517 1.9279C20.067 1.528 18.6046 1.31909 17.0886 1.31909C15.5725 1.31909 14.1102 1.53397 12.7254 1.9279C11.3228 2.33377 9.86641 2.53074 8.40408 2.53074H3.56941C3.12176 2.53074 2.87704 3.05599 3.16951 3.39621L5.16903 5.74192C5.42568 6.04035 5.41971 6.47607 5.16306 6.77451C2.76363 9.53802 1.31323 13.1491 1.31323 17.1004C1.31323 19.5058 1.85042 21.7799 2.81138 23.8212C2.88898 23.9823 2.96657 24.1435 3.05013 24.3046C3.07401 24.3584 3.10385 24.4061 3.12772 24.4598C3.15757 24.5136 3.18741 24.5732 3.21726 24.627C3.28291 24.7463 3.34857 24.8717 3.42019 24.9911C3.3426 25.1224 3.27097 25.2596 3.19935 25.391C3.1516 25.4745 3.10982 25.564 3.06207 25.6536C3.03819 25.6954 3.02029 25.7371 2.99641 25.7789C2.93673 25.8923 2.88301 26.0117 2.82929 26.1251C2.82332 26.137 2.81735 26.149 2.81138 26.1609C2.75169 26.2863 2.69201 26.4176 2.63829 26.5489C1.78476 28.4947 1.31323 30.6315 1.31323 32.8877C1.31323 36.6718 2.64426 40.1456 4.86462 42.8614C7.75945 46.4068 12.1584 48.669 17.0886 48.669C17.775 48.669 18.4435 48.6272 19.106 48.5436C19.8521 48.4481 20.0491 47.4573 19.3985 47.0813C17.7929 46.1502 16.3126 45.0102 14.9816 43.6791L14.9756 43.6732C14.6056 43.3031 14.1579 43.0047 13.6625 42.8375C11.7346 42.169 10.0574 40.9574 8.81592 39.3816C7.4073 37.591 6.56571 35.3348 6.56571 32.8877C6.56571 31.6581 6.78058 30.4763 7.16855 29.3781C7.15064 29.3661 7.13871 29.3542 7.1208 29.3363C7.13871 29.3482 7.15064 29.3602 7.16855 29.3781C7.77139 27.671 8.80398 26.1669 10.135 24.9911C11.9913 23.3556 14.4265 22.3588 17.0886 22.3588C19.7506 22.3588 22.1859 23.3556 24.0421 24.9911C25.3732 26.1669 26.4057 27.671 27.0086 29.3781C27.3966 30.4763 27.6114 31.6581 27.6114 32.8877C27.6114 32.8877 27.6114 32.8877 27.6114 32.8936V43.1658C24.6211 42.6227 21.8277 41.2081 19.6492 39.0355C16.808 36.2003 15.2442 32.4281 15.2442 28.4171C15.2442 27.2174 15.3815 26.0415 15.662 24.8896C15.7934 24.3345 15.28 23.8391 14.7309 23.9823C13.3641 24.3464 12.0868 25.0269 11.0064 25.9759C10.9288 26.0415 10.8513 26.1132 10.7796 26.1848C10.2902 26.6444 10.0097 27.283 9.99176 27.9515C9.98579 28.1067 9.98579 28.2619 9.98579 28.4171C9.98579 31.1508 10.523 33.8069 11.5794 36.3018C12.6001 38.7131 14.0624 40.8798 15.9187 42.742C17.7809 44.6043 19.9476 46.0606 22.359 47.0813C24.8598 48.1378 27.51 48.6749 30.2436 48.6749H32.088C32.5237 48.6749 32.8758 48.3228 32.8758 47.8871L32.8878 32.8877Z" fill="#221C35"/>
<path d="M12.9283 15.3097C14.382 15.3097 15.5605 14.1312 15.5605 12.6775C15.5605 11.2238 14.382 10.0453 12.9283 10.0453C11.4746 10.0453 10.2961 11.2238 10.2961 12.6775C10.2961 14.1312 11.4746 15.3097 12.9283 15.3097Z" fill="#221C35"/>
<path d="M21.2728 15.3097C22.7265 15.3097 23.905 14.1312 23.905 12.6775C23.905 11.2238 22.7265 10.0453 21.2728 10.0453C19.819 10.0453 18.6406 11.2238 18.6406 12.6775C18.6406 14.1312 19.819 15.3097 21.2728 15.3097Z" fill="#221C35"/>
</svg>
